HIERARCHY
ROOT Hips
{
	OFFSET 0.000000 0.000000 0.000000
	CHANNELS 6 Xposition Yposition Zposition Xrotation Yrotation Zrotation
	JOINT LeftUpLeg_virtual
	{
		OFFSET 0.000000 0.000000 0.000000
		CHANNELS 3 Xrotation Yrotation Zrotation
		JOINT LeftUpLeg
		{
			OFFSET 10.205400 -3.823500 0.155100
			CHANNELS 3 Xrotation Yrotation Zrotation
			JOINT LeftLeg
			{
				OFFSET 0.708757 -12.982077 0.567790
				CHANNELS 3 Xrotation Yrotation Zrotation
				JOINT LeftFoot
				{
					OFFSET -0.708756 -10.717838 -2.184338
					CHANNELS 3 Xrotation Yrotation Zrotation
					JOINT LeftToeBase
					{
						OFFSET 0.108149 -7.191104 7.560241
						CHANNELS 3 Xrotation Yrotation Zrotation
						JOINT LeftToe_End
						{
							OFFSET 0.070230 0.081724 4.490308
							CHANNELS 3 Xrotation Yrotation Zrotation
							End Site
							{
								OFFSET 0 0 0
							}
						}
					}
				}
			}
		}
	}
	JOINT RightUpLeg_virtual
	{
		OFFSET 0.000000 0.000000 0.000000
		CHANNELS 3 Xrotation Yrotation Zrotation
		JOINT RightUpLeg
		{
			OFFSET -10.205400 -3.823500 0.005500
			CHANNELS 3 Xrotation Yrotation Zrotation
			JOINT RightLeg
			{
				OFFSET -0.708756 -12.982134 0.610632
				CHANNELS 3 Xrotation Yrotation Zrotation
				JOINT RightFoot
				{
					OFFSET 0.708754 -10.717769 -1.945823
					CHANNELS 3 Xrotation Yrotation Zrotation
					JOINT RightToeBase
					{
						OFFSET -0.108140 -7.191069 7.372968
						CHANNELS 3 Xrotation Yrotation Zrotation
						JOINT RightToe_End
						{
							OFFSET -0.070227 0.081735 4.479403
							CHANNELS 3 Xrotation Yrotation Zrotation
							End Site
							{
								OFFSET 0 0 0
							}
						}
					}
				}
			}
		}
	}
	JOINT Spine_virtual
	{
		OFFSET 0.000000 0.000000 0.000000
		CHANNELS 3 Xrotation Yrotation Zrotation
		JOINT Spine
		{
			OFFSET 0.000000 6.876099 0.125700
			CHANNELS 3 Xrotation Yrotation Zrotation
			JOINT Spine1
			{
				OFFSET 0.000000 5.730043 0.104720
				CHANNELS 3 Xrotation Yrotation Zrotation
				JOINT Spine1_split
				{
					OFFSET 0.000000 5.730043 0.104720
					CHANNELS 3 Xrotation Yrotation Zrotation
					JOINT Spine2
					{
						OFFSET 0.000000 5.730043 0.104720
						CHANNELS 3 Xrotation Yrotation Zrotation
						JOINT Neck_virtual
						{
							OFFSET 0.000000 0.000000 0.000000
							CHANNELS 3 Xrotation Yrotation Zrotation
							JOINT Neck
							{
								OFFSET 0.000000 10.314075 0.188496
								CHANNELS 3 Xrotation Yrotation Zrotation
								JOINT Head
								{
									OFFSET 0.000000 7.643700 -2.377400
									CHANNELS 3 Xrotation Yrotation Zrotation
									JOINT HeadTop_End
									{
										OFFSET 0.000000 43.788605 -13.619600
										CHANNELS 3 Xrotation Yrotation Zrotation
										End Site
										{
											OFFSET 0 0 0
										}
									}
								}
							}
						}
						JOINT LeftShoulder_virtual
						{
							OFFSET 0.000000 0.000000 0.000000
							CHANNELS 3 Xrotation Yrotation Zrotation
							JOINT LeftShoulder
							{
								OFFSET 2.196100 4.412489 0.087492
								CHANNELS 3 Xrotation Yrotation Zrotation
								JOINT LeftShoulder_split
								{
									OFFSET 2.196100 4.412489 0.087492
									CHANNELS 3 Xrotation Yrotation Zrotation
									JOINT LeftArm
									{
										OFFSET 8.771219 -2.981674 -0.026999
										CHANNELS 3 Xrotation Yrotation Zrotation
										JOINT LeftForeArm
										{
											OFFSET 8.512804 0.000000 -0.000000
											CHANNELS 3 Xrotation Yrotation Zrotation
											JOINT LeftHand
											{
												OFFSET 18.484802 0.000000 -0.000000
												CHANNELS 3 Xrotation Yrotation Zrotation
												End Site
												{
													OFFSET 0 0 0
												}
											}
										}
									}
								}
							}
						}
						JOINT RightShoulder_virtual
						{
							OFFSET 0.000000 0.000000 0.000000
							CHANNELS 3 Xrotation Yrotation Zrotation
							JOINT RightShoulder
							{
								OFFSET -2.196100 4.412496 0.070690
								CHANNELS 3 Xrotation Yrotation Zrotation
								JOINT RightShoulder_split
								{
									OFFSET -2.196100 4.412496 0.070690
									CHANNELS 3 Xrotation Yrotation Zrotation
									JOINT RightArm
									{
										OFFSET -8.771282 -2.981682 -0.094208
										CHANNELS 3 Xrotation Yrotation Zrotation
										JOINT RightForeArm
										{
											OFFSET -8.494598 0.000000 0.000000
											CHANNELS 3 Xrotation Yrotation Zrotation
											JOINT RightHand
											{
												OFFSET -18.483803 0.000000 0.000001
												CHANNELS 3 Xrotation Yrotation Zrotation
												End Site
												{
													OFFSET 0 0 0
												}
											}
										}
									}
								}
							}
						}
					}
				}
			}
		}
	}
}
MOTION
Frames: 7
Frame Time: 0.03333333
0.043155 24.800243 1.117007 0.000000 0.000000 0.000000 -4.316788 -74.827058 -3.289727 -37.487121 6.274502 64.041534 43.677496 -11.097870 -10.154051 4.338723 1.488701 -34.196893 -0.031744 -0.002756 -0.038435 0.000000 0.000000 0.000000 -4.316788 -74.827058 -3.289727 -37.297846 10.266360 -41.604769 66.734063 20.367974 -5.685614 -23.170015 -11.625656 33.857835 -0.005266 -0.000128 -0.000159 0.000000 0.000000 0.000000 -4.316788 -74.827058 -3.289727 2.952966 -0.371627 -1.572592 5.893828 -0.904749 -3.151097 0.000000 0.000000 0.000000 0.000000 0.000000 0.000000 5.893815 -0.904585 -3.151113 -2.451537 24.309794 7.456973 0.154238 27.772029 -8.534005 0.000000 0.000000 0.000000 5.893815 -0.904585 -3.151113 0.279784 -7.010243 -19.556623 0.000000 0.000000 0.000000 -39.504079 -20.309100 -2.427277 -5.614213 -32.071584 -2.800582 0.000000 0.000000 0.000000 5.893815 -0.904585 -3.151113 0.636249 13.855915 9.110365 0.000000 0.000000 0.000000 35.455273 67.114422 -18.850904 0.649711 83.885317 -11.766978 0.000000 0.000000 0.000000 
0.060274 24.874451 1.116599 0.000000 0.000000 0.000000 -5.318243 -75.261021 -4.297936 -36.389100 6.651755 63.917020 43.290774 -10.435499 -10.043018 4.226540 1.573866 -34.606397 -0.031588 -0.002740 -0.038236 0.000000 0.000000 0.000000 -5.318243 -75.261021 -4.297936 -37.432821 10.276634 -41.259656 66.265573 20.441981 -5.673341 -22.620849 -11.376553 33.724780 -0.005269 -0.000117 -0.000151 0.000000 0.000000 0.000000 -5.318243 -75.261021 -4.297936 2.900387 -0.331068 -1.526824 5.790269 -0.823352 -3.057951 0.000000 0.000000 0.000000 0.000000 0.000000 0.000000 5.790277 -0.823155 -3.058012 -2.569102 24.400572 7.466809 0.176402 27.894277 -8.544352 0.000000 0.000000 0.000000 5.790277 -0.823155 -3.058012 0.268775 -7.020043 -19.607422 0.000000 0.000000 0.000000 -39.486884 -20.023365 -2.512436 -5.275110 -32.657136 -2.924874 0.000000 0.000000 0.000000 5.790277 -0.823155 -3.058012 0.634748 13.830889 9.149997 0.000000 0.000000 0.000000 35.145070 66.734814 -18.516986 1.797511 83.924010 -12.613781 0.000000 0.000000 0.000000 
0.112707 25.063431 1.105862 0.000000 0.000000 0.000000 -8.643620 -76.558320 -7.644926 -33.926397 8.193658 64.025203 42.022052 -9.207326 -9.841650 4.106463 1.727136 -35.419537 -0.031213 -0.002757 -0.037784 0.000000 0.000000 0.000000 -8.643620 -76.558320 -7.644926 -37.944221 10.377696 -40.228786 65.056063 20.743213 -5.634882 -21.052002 -10.659110 33.292476 -0.005270 -0.000074 -0.000150 0.000000 0.000000 0.000000 -8.643620 -76.558320 -7.644926 2.735417 -0.208440 -1.410059 5.463875 -0.576409 -2.823615 0.000000 0.000000 0.000000 0.000000 0.000000 0.000000 5.463879 -0.576610 -2.823585 -2.878976 24.654562 7.494873 0.243574 28.241678 -8.588793 0.000000 0.000000 0.000000 5.463879 -0.576610 -2.823585 0.178883 -7.112272 -19.959759 0.000000 0.000000 0.000000 -38.090029 -18.526663 -4.022175 -4.376994 -34.383667 -3.671997 0.000000 0.000000 0.000000 5.463879 -0.576610 -2.823585 0.618036 13.645846 9.451072 0.000000 0.000000 0.000000 33.426625 66.007754 -15.519172 3.993704 82.618870 -14.044131 0.000000 0.000000 0.000000 
0.180862 25.302002 1.081570 0.000000 0.000000 0.000000 -13.655228 -77.987182 -12.682372 -31.043773 10.210328 64.059607 40.174838 -7.701165 -9.617926 4.238455 1.810434 -36.290619 -0.030219 -0.002728 -0.036575 0.000000 0.000000 0.000000 -13.655228 -77.987182 -12.682372 -38.295894 10.504537 -39.011479 63.380447 19.574603 -5.655559 -19.137266 -8.545436 33.496139 -0.005274 -0.000098 -0.000160 0.000000 0.000000 0.000000 -13.655228 -77.987182 -12.682372 2.628349 -0.101403 -1.258299 5.251880 -0.370014 -2.520962 0.000000 0.000000 0.000000 0.000000 0.000000 0.000000 5.251884 -0.369756 -2.520970 -3.341076 25.041017 7.539484 0.367113 28.770676 -8.674012 0.000000 0.000000 0.000000 5.251884 -0.369756 -2.520970 -0.007890 -7.332811 -20.527671 0.000000 0.000000 0.000000 -35.072676 -16.294475 -6.885059 -3.084757 -37.890102 -4.806814 0.000000 0.000000 0.000000 5.251884 -0.369756 -2.520970 0.583440 13.311842 10.010961 0.000000 0.000000 0.000000 29.395925 64.655684 -10.020346 5.849133 80.267420 -14.787394 0.000000 0.000000 0.000000 
0.253049 25.579227 1.047256 0.000000 0.000000 0.000000 -19.624766 -79.047384 -18.672494 -28.346552 12.238814 63.702968 37.668483 -7.422460 -9.443267 4.813794 3.128838 -36.922131 -0.028979 -0.002761 -0.035039 0.000000 0.000000 0.000000 -19.624766 -79.047384 -18.672494 -38.063483 10.514879 -37.827838 61.429963 18.041311 -5.668286 -17.368379 -6.479053 33.798693 -0.005261 -0.000110 -0.000152 0.000000 0.000000 0.000000 -19.624766 -79.047384 -18.672494 2.719488 -0.087917 -1.073126 5.435074 -0.364672 -2.147216 0.000000 0.000000 0.000000 0.000000 0.000000 0.000000 5.435055 -0.364739 -2.147182 -3.904890 25.530409 7.599183 0.549389 29.440742 -8.814014 0.000000 0.000000 0.000000 5.435055 -0.364739 -2.147182 -0.300787 -7.717403 -21.169323 0.000000 0.000000 0.000000 -30.464614 -14.324742 -10.587065 -1.501561 -43.437544 -6.010365 0.000000 0.000000 0.000000 5.435055 -0.364739 -2.147182 0.540615 12.870452 10.782991 0.000000 0.000000 0.000000 24.293540 62.555722 -2.535432 7.088313 77.228266 -14.683640 0.000000 0.000000 0.000000 
0.329228 25.890018 1.005415 0.000000 0.000000 0.000000 -25.395372 -79.250890 -24.453879 -26.286053 13.854671 63.084597 35.016368 -7.066759 -9.209153 5.891599 3.830523 -37.149713 -0.254090 -0.037003 0.207375 0.000000 0.000000 0.000000 -25.395372 -79.250890 -24.453879 -36.681599 10.259267 -36.924269 59.352295 16.737751 -5.635021 -16.104126 -5.444785 34.027880 -0.005266 -0.000118 -0.000157 0.000000 0.000000 0.000000 -25.395372 -79.250890 -24.453879 2.918825 -0.183321 -0.863370 5.831685 -0.560756 -1.716623 0.000000 0.000000 0.000000 0.000000 0.000000 0.000000 5.831683 -0.560676 -1.716638 -4.522947 26.093486 7.672544 0.795776 30.209947 -9.020411 0.000000 0.000000 0.000000 5.831683 -0.560676 -1.716638 -0.709173 -8.303029 -21.744093 0.000000 0.000000 0.000000 -24.571810 -14.103295 -14.471303 0.320406 -50.243606 -6.824093 0.000000 0.000000 0.000000 5.831683 -0.560676 -1.716638 0.495816 12.362363 11.721402 0.000000 0.000000 0.000000 19.366851 59.530576 4.934741 7.368359 72.767708 -13.528115 0.000000 0.000000 0.000000 
0.378016 26.219067 1.006936 0.000000 0.000000 0.000000 -28.118395 -78.576470 -27.199137 -25.564812 14.137594 62.795837 33.825457 -3.516031 -8.832632 7.392196 -0.533466 -36.307397 -0.434162 0.350478 -0.973773 0.000000 0.000000 0.000000 -28.118395 -78.576470 -27.199137 -34.052198 9.751882 -36.470553 57.087998 16.209545 -5.503144 -15.419727 -6.232762 34.200997 -0.005264 -0.000101 -0.000148 0.000000 0.000000 0.000000 -28.118395 -78.576470 -27.199137 3.142109 -0.419642 -0.637400 6.274742 -1.015794 -1.237423 0.000000 0.000000 0.000000 0.000000 0.000000 0.000000 6.274737 -1.016044 -1.237386 -5.149421 26.700217 7.757261 1.115013 31.036687 -9.304508 0.000000 0.000000 0.000000 6.274737 -1.016044 -1.237386 -1.237970 -9.130114 -22.113205 0.000000 0.000000 0.000000 -18.131096 -16.983458 -17.594014 2.276099 -57.117918 -6.833763 0.000000 0.000000 0.000000 6.274737 -1.016044 -1.237386 0.452597 11.827388 12.780978 0.000000 0.000000 0.000000 15.018795 55.768105 11.834437 7.313394 67.627725 -11.518060 0.000000 0.000000 0.000000 
